<svg width="88" height="88" viewBox="0 0 88 88" fill="none" xmlns="http://www.w3.org/2000/svg">
<circle cx="43.7742" cy="43.8556" r="43.2473" fill="white"/>
<g clip-path="url(#clip0_640_359)">
<path d="M56.3933 30.0736C57.1658 29.144 57.0428 27.7631 56.1131 26.9906C55.1834 26.2182 53.8025 26.3412 53.0301 27.2709L43.7742 38.3793L34.5183 27.2709C33.7459 26.3412 32.365 26.2182 31.4353 26.9906C30.5056 27.7631 30.3826 29.144 31.1551 30.0736L40.9236 41.7973L31.1551 53.5209C30.3826 54.4506 30.5056 55.8314 31.4353 56.6039C32.365 57.3764 33.7459 57.2533 34.5183 56.3236L43.7742 45.2152L53.0301 56.3236C53.8025 57.2533 55.1834 57.3764 56.1131 56.6039C57.0428 55.8314 57.1658 54.4506 56.3933 53.5209L46.6248 41.7973L56.3933 30.0736Z" fill="#333333"/>
</g>
<defs>
<clipPath id="clip0_640_359">
<rect width="26.25" height="35" fill="white" transform="translate(30.6492 24.2972)"/>
</clipPath>
</defs>
</svg>
