<svg width="77" height="63" viewBox="0 0 77 63" fill="none" xmlns="http://www.w3.org/2000/svg">
<rect x="0.983887" y="0.578369" width="76" height="42" rx="15" fill="white"/>
<path d="M38.9839 4.70117C34.7553 4.70117 31.3276 8.12886 31.3276 12.3574C31.3276 15.776 36.3315 22.0067 38.2486 24.2684C38.6369 24.7265 39.3315 24.7265 39.7191 24.2684C41.6362 22.0067 46.6401 15.776 46.6401 12.3574C46.6401 8.12886 43.2124 4.70117 38.9839 4.70117ZM38.9839 14.9095C37.5742 14.9095 36.4318 13.7671 36.4318 12.3574C36.4318 10.9477 37.5742 9.80534 38.9839 9.80534C40.3936 9.80534 41.536 10.9477 41.536 12.3574C41.536 13.7671 40.3936 14.9095 38.9839 14.9095ZM22.7065 17.8231C22.3456 17.9675 22.0363 18.2166 21.8184 18.5383C21.6005 18.8601 21.484 19.2398 21.4839 19.6284V34.8388C21.4839 35.5267 22.1784 35.997 22.817 35.7418L31.2061 31.9234V17.7605C30.669 16.7895 30.2296 15.8441 29.9149 14.9399L22.7065 17.8231ZM38.9839 26.5561C38.1289 26.5561 37.3202 26.1806 36.7654 25.5256C35.5708 24.1158 34.3002 22.5105 33.1506 20.8638V31.9228L44.8172 35.8117V20.8644C43.6676 22.5105 42.3976 24.1164 41.2024 25.5262C40.6476 26.1806 39.8388 26.5561 38.9839 26.5561ZM55.1507 14.4939L46.7617 18.3123V35.8123L55.2613 32.4125C55.6222 32.2683 55.9316 32.0192 56.1495 31.6974C56.3674 31.3756 56.4839 30.9959 56.4839 30.6072V15.3968C56.4839 14.709 55.7894 14.2387 55.1507 14.4939Z" fill="#333333"/>
<path d="M26.528 57.701V47.8368H28.5651L31.5866 55.37H31.6345L34.656 47.8368H36.6931V57.701H35.1071V50.6874H35.0524L32.2087 57.701H31.0124L28.1687 50.6874H28.1208V57.701H26.528ZM39.9272 57.8241C38.478 57.8241 37.5005 56.9286 37.5005 55.6366V55.6229C37.5005 54.3378 38.4985 53.5653 40.2554 53.4559L42.1489 53.3397V52.8407C42.1489 52.1093 41.6704 51.6649 40.8091 51.6649C40.0024 51.6649 39.5103 52.0409 39.4009 52.5741L39.3872 52.6356H37.8081L37.8149 52.5536C37.9175 51.2684 39.0317 50.3046 40.8706 50.3046C42.6821 50.3046 43.8511 51.2616 43.8511 52.7177V57.701H42.1489V56.5868H42.1079C41.6909 57.3456 40.8843 57.8241 39.9272 57.8241ZM39.1958 55.5682C39.1958 56.163 39.688 56.5253 40.4331 56.5253C41.4106 56.5253 42.1489 55.8759 42.1489 55.0145V54.4677L40.4946 54.5702C39.6538 54.6249 39.1958 54.9872 39.1958 55.5614V55.5682ZM44.9251 60.0936V50.455H46.6272V51.7059H46.6614C47.0784 50.8378 47.8714 50.3046 48.9104 50.3046C50.7493 50.3046 51.9114 51.7401 51.9114 54.078V54.0848C51.9114 56.4091 50.7493 57.8446 48.931 57.8446C47.8987 57.8446 47.0716 57.3251 46.6614 56.4774H46.6272V60.0936H44.9251ZM48.4046 56.4091C49.4915 56.4091 50.1751 55.5135 50.1751 54.0848V54.078C50.1751 52.6288 49.4915 51.7401 48.4046 51.7401C47.3519 51.7401 46.6136 52.6561 46.6136 54.078V54.0848C46.6136 55.4999 47.3519 56.4091 48.4046 56.4091Z" fill="#333333"/>
</svg>
