<svg width="77" height="66" viewBox="0 0 77 66" fill="none" xmlns="http://www.w3.org/2000/svg">
<rect x="0.0166016" y="0.256836" width="76" height="42" rx="15" fill="white"/>
<path d="M21.0166 64.2387H55.0166" stroke="white" stroke-width="3" stroke-linecap="round"/>
<path d="M52.8322 18.5959V16.7538L41.7796 5.70117H23.3585C21.3138 5.70117 19.6743 7.34065 19.6743 9.38538V35.1749C19.6743 36.152 20.0625 37.0891 20.7534 37.78C21.4443 38.4709 22.3814 38.8591 23.3585 38.8591H34.4112V35.4143L49.8664 19.9591C50.6769 19.1485 51.7085 18.7064 52.8322 18.5959ZM39.9375 8.46433L50.0691 18.5959H39.9375V8.46433ZM56.2401 26.3143L54.4348 28.1196L50.6769 24.3617L52.4822 22.5564C52.8322 22.188 53.4401 22.188 53.8085 22.5564L56.2401 24.988C56.6085 25.3564 56.6085 25.9643 56.2401 26.3143ZM49.3875 25.6512L53.1454 29.4091L41.8533 40.7012H38.0954V36.9433L49.3875 25.6512Z" fill="#333333"/>
<path d="M24.6702 58.7012V48.8369H28.471C30.4671 48.8369 31.8274 50.1562 31.8274 52.1318V52.1455C31.8274 54.1143 30.4671 55.4404 28.471 55.4404H26.4339V58.7012H24.6702ZM28.0335 50.2793H26.4339V54.0186H28.0335C29.2981 54.0186 30.0364 53.335 30.0364 52.1523V52.1387C30.0364 50.9561 29.2981 50.2793 28.0335 50.2793ZM35.5812 58.8447C33.4483 58.8447 32.0743 57.4229 32.0743 55.0781V55.0645C32.0743 52.7402 33.4688 51.3047 35.5743 51.3047C37.6866 51.3047 39.088 52.7266 39.088 55.0645V55.0781C39.088 57.4297 37.7071 58.8447 35.5812 58.8447ZM35.588 57.4707C36.6612 57.4707 37.3517 56.5957 37.3517 55.0781V55.0645C37.3517 53.5537 36.6544 52.6855 35.5743 52.6855C34.5147 52.6855 33.8106 53.5605 33.8106 55.0645V55.0781C33.8106 56.6025 34.5011 57.4707 35.588 57.4707ZM42.7118 58.8447C40.8114 58.8447 39.7245 57.9424 39.5741 56.5957L39.5673 56.5342H41.2421L41.2558 56.5957C41.3856 57.2178 41.8573 57.5869 42.7187 57.5869C43.5458 57.5869 44.0448 57.252 44.0448 56.7188V56.7119C44.0448 56.2744 43.7919 56.0283 43.0399 55.8574L41.8368 55.5908C40.4491 55.2832 39.7519 54.6064 39.7519 53.5332V53.5264C39.7519 52.2002 40.9071 51.3047 42.6571 51.3047C44.4618 51.3047 45.5145 52.2959 45.5761 53.5469L45.5829 53.6221H43.997L43.9901 53.5674C43.9149 52.9863 43.4501 52.5625 42.6571 52.5625C41.9052 52.5625 41.4335 52.9111 41.4335 53.4443V53.4512C41.4335 53.8682 41.7138 54.1416 42.4657 54.3125L43.6757 54.5791C45.1728 54.9141 45.7538 55.502 45.7538 56.5547V56.5615C45.7538 57.9287 44.4892 58.8447 42.7118 58.8447ZM49.2341 58.8447C47.7165 58.8447 46.9987 58.2295 46.9987 56.7393V52.7676H45.9733V51.4551H46.9987V49.6162H48.7282V51.4551H50.0749V52.7676H48.7282V56.5957C48.7282 57.3066 49.0427 57.5322 49.6647 57.5322C49.8288 57.5322 49.9587 57.5117 50.0749 57.5049V58.7832C49.8767 58.8105 49.5759 58.8447 49.2341 58.8447Z" fill="#333333"/>
</svg>
