<svg width="77" height="65" viewBox="0 0 77 65" fill="none" xmlns="http://www.w3.org/2000/svg">
<rect x="0.0163574" y="0.256714" width="76" height="42" rx="15" fill="#E30D16"/>
<line x1="20.1741" y1="63.2561" x2="54.1741" y2="63.2561" stroke="#E30D16" stroke-width="3" stroke-linecap="round"/>
<path d="M52.832 18.5958V16.7537L41.7793 5.70105H23.3583C21.3135 5.70105 19.6741 7.34052 19.6741 9.38526V35.1747C19.6741 36.1518 20.0622 37.0889 20.7532 37.7799C21.4441 38.4708 22.3812 38.8589 23.3583 38.8589H34.4109V35.4142L49.8662 19.9589C50.6767 19.1484 51.7083 18.7063 52.832 18.5958ZM39.9372 8.46421L50.0688 18.5958H39.9372V8.46421ZM56.2399 26.3142L54.4346 28.1195L50.6767 24.3616L52.482 22.5563C52.832 22.1879 53.4399 22.1879 53.8083 22.5563L56.2399 24.9879C56.6083 25.3563 56.6083 25.9642 56.2399 26.3142ZM49.3872 25.6511L53.1451 29.4089L41.853 40.701H38.0951V36.9432L49.3872 25.6511Z" fill="white"/>
<path d="M24.67 58.701V48.8368H28.4708C30.4668 48.8368 31.8272 50.1561 31.8272 52.1317V52.1454C31.8272 54.1141 30.4668 55.4403 28.4708 55.4403H26.4336V58.701H24.67ZM28.0333 50.2792H26.4336V54.0184H28.0333C29.2979 54.0184 30.0362 53.3348 30.0362 52.1522V52.1385C30.0362 50.9559 29.2979 50.2792 28.0333 50.2792ZM35.5809 58.8446C33.4481 58.8446 32.0741 57.4227 32.0741 55.078V55.0643C32.0741 52.7401 33.4686 51.3046 35.5741 51.3046C37.6864 51.3046 39.0877 52.7264 39.0877 55.0643V55.078C39.0877 57.4296 37.7069 58.8446 35.5809 58.8446ZM35.5877 57.4706C36.661 57.4706 37.3514 56.5956 37.3514 55.078V55.0643C37.3514 53.5536 36.6542 52.6854 35.5741 52.6854C34.5145 52.6854 33.8104 53.5604 33.8104 55.0643V55.078C33.8104 56.6024 34.5008 57.4706 35.5877 57.4706ZM42.7116 58.8446C40.8112 58.8446 39.7243 57.9423 39.5739 56.5956L39.567 56.5341H41.2418L41.2555 56.5956C41.3854 57.2177 41.8571 57.5868 42.7184 57.5868C43.5456 57.5868 44.0446 57.2518 44.0446 56.7186V56.7118C44.0446 56.2743 43.7916 56.0282 43.0397 55.8573L41.8366 55.5907C40.4489 55.2831 39.7516 54.6063 39.7516 53.5331V53.5262C39.7516 52.2001 40.9069 51.3046 42.6569 51.3046C44.4616 51.3046 45.5143 52.2958 45.5758 53.5468L45.5827 53.6219H43.9967L43.9899 53.5673C43.9147 52.9862 43.4499 52.5624 42.6569 52.5624C41.9049 52.5624 41.4333 52.911 41.4333 53.4442V53.451C41.4333 53.868 41.7135 54.1415 42.4655 54.3124L43.6754 54.579C45.1725 54.9139 45.7536 55.5018 45.7536 56.5546V56.5614C45.7536 57.9286 44.4889 58.8446 42.7116 58.8446ZM49.2338 58.8446C47.7163 58.8446 46.9985 58.2294 46.9985 56.7391V52.7675H45.9731V51.455H46.9985V49.6161H48.728V51.455H50.0747V52.7675H48.728V56.5956C48.728 57.3065 49.0424 57.5321 49.6645 57.5321C49.8286 57.5321 49.9584 57.5116 50.0747 57.5048V58.7831C49.8764 58.8104 49.5756 58.8446 49.2338 58.8446Z" fill="#E30D16"/>
</svg>
