<svg width="77" height="64" viewBox="0 0 77 64" fill="none" xmlns="http://www.w3.org/2000/svg">
<rect x="0.984131" y="0.929077" width="76" height="41.1251" rx="15" fill="#E30D16"/>
<path d="M38.9841 6.26001C34.7556 6.26001 31.3279 9.6163 31.3279 13.7568C31.3279 17.1041 36.3318 23.2051 38.2489 25.4196C38.6372 25.8682 39.3317 25.8682 39.7194 25.4196C41.6365 23.2051 46.6404 17.1041 46.6404 13.7568C46.6404 9.6163 43.2127 6.26001 38.9841 6.26001ZM38.9841 16.2557C37.5744 16.2557 36.432 15.1371 36.432 13.7568C36.432 12.3764 37.5744 11.2578 38.9841 11.2578C40.3939 11.2578 41.5362 12.3764 41.5362 13.7568C41.5362 15.1371 40.3939 16.2557 38.9841 16.2557ZM22.7067 19.1086C22.3459 19.2499 22.0366 19.4939 21.8186 19.8089C21.6007 20.124 21.4842 20.4958 21.4841 20.8763V35.7699C21.4841 36.4434 22.1787 36.9039 22.8173 36.654L31.2064 32.9151V19.0473C30.6692 18.0966 30.2299 17.1708 29.9151 16.2854L22.7067 19.1086ZM38.9841 27.6597C38.1292 27.6597 37.3204 27.292 36.7656 26.6506C35.571 25.2702 34.3005 23.6983 33.1508 22.0859V32.9145L44.8175 36.7224V22.0865C43.6678 23.6983 42.3978 25.2708 41.2026 26.6512C40.6478 27.292 39.8391 27.6597 38.9841 27.6597ZM55.151 15.8487L46.7619 19.5876V36.723L55.2616 33.3941C55.6224 33.2529 55.9318 33.0089 56.1497 32.6939C56.3676 32.3788 56.4841 32.007 56.4841 31.6264V16.7329C56.4841 16.0593 55.7896 15.5988 55.151 15.8487Z" fill="white"/>
<path d="M26.5283 55.7612V45.897H28.5654L31.5869 53.4302H31.6347L34.6562 45.897H36.6933V55.7612H35.1074V48.7476H35.0527L32.2089 55.7612H31.0126L28.1689 48.7476H28.121V55.7612H26.5283ZM39.9275 55.8843C38.4783 55.8843 37.5007 54.9888 37.5007 53.6968V53.6831C37.5007 52.3979 38.4988 51.6255 40.2556 51.5161L42.1492 51.3999V50.9009C42.1492 50.1694 41.6707 49.7251 40.8093 49.7251C40.0027 49.7251 39.5105 50.1011 39.4011 50.6343L39.3875 50.6958H37.8083L37.8152 50.6138C37.9177 49.3286 39.032 48.3647 40.8708 48.3647C42.6824 48.3647 43.8513 49.3218 43.8513 50.7778V55.7612H42.1492V54.647H42.1082C41.6912 55.4058 40.8845 55.8843 39.9275 55.8843ZM39.196 53.6284C39.196 54.2231 39.6882 54.5854 40.4333 54.5854C41.4109 54.5854 42.1492 53.936 42.1492 53.0747V52.5278L40.4949 52.6304C39.6541 52.6851 39.196 53.0474 39.196 53.6216V53.6284ZM44.9253 58.1538V48.5151H46.6275V49.7661H46.6617C47.0787 48.8979 47.8716 48.3647 48.9107 48.3647C50.7496 48.3647 51.9117 49.8003 51.9117 52.1382V52.145C51.9117 54.4692 50.7496 55.9048 48.9312 55.9048C47.899 55.9048 47.0718 55.3853 46.6617 54.5376H46.6275V58.1538H44.9253ZM48.4048 54.4692C49.4917 54.4692 50.1753 53.5737 50.1753 52.145V52.1382C50.1753 50.689 49.4917 49.8003 48.4048 49.8003C47.3521 49.8003 46.6138 50.7163 46.6138 52.1382V52.145C46.6138 53.5601 47.3521 54.4692 48.4048 54.4692Z" fill="#E30D16"/>
<path d="M22.4841 61.2819H56.4841" stroke="#E30D16" stroke-width="3" stroke-linecap="round"/>
</svg>
