<svg width="88" height="88" viewBox="0 0 88 88" fill="none" xmlns="http://www.w3.org/2000/svg">
<circle cx="44.1086" cy="43.8556" r="43.2473" fill="#E30D16"/>
<path d="M22.643 55.2462C17.4711 55.2462 14.0649 52.8087 13.7993 48.7618L13.7836 48.5275H17.643L17.6743 48.715C17.9711 50.6525 19.9555 51.8556 22.7836 51.8556C25.6274 51.8556 27.4086 50.59 27.4086 48.6525V48.6368C27.4086 46.9493 26.2368 46.0431 23.3305 45.4337L20.9086 44.9337C16.4711 44.0118 14.2836 41.9493 14.2836 38.59V38.5743C14.2993 34.6056 17.7836 31.9181 22.643 31.9181C27.5649 31.9181 30.7836 34.5118 31.018 38.3712L31.0336 38.6368H27.1743L27.143 38.4493C26.8774 36.4806 25.143 35.3087 22.6118 35.3087C19.9711 35.3243 18.3305 36.5587 18.3305 38.3556V38.3712C18.3305 39.965 19.5649 40.9025 22.2836 41.465L24.7211 41.965C29.4086 42.9337 31.4555 44.84 31.4555 48.3556V48.3712C31.4555 52.5743 28.143 55.2462 22.643 55.2462ZM44.1086 55.2462C37.5149 55.2462 33.4055 50.7618 33.4055 43.59V43.5587C33.4055 36.4025 37.5461 31.9181 44.1086 31.9181C50.6868 31.9181 54.7961 36.4025 54.7961 43.5587V43.59C54.7961 50.7618 50.7024 55.2462 44.1086 55.2462ZM44.1086 51.7462C48.1868 51.7462 50.7024 48.5587 50.7024 43.59V43.5587C50.7024 38.5587 48.1399 35.4181 44.1086 35.4181C40.093 35.4181 37.5149 38.5431 37.5149 43.5587V43.59C37.5149 48.6056 40.0774 51.7462 44.1086 51.7462ZM65.6368 55.2462C60.4649 55.2462 57.0586 52.8087 56.793 48.7618L56.7774 48.5275H60.6368L60.668 48.715C60.9649 50.6525 62.9493 51.8556 65.7774 51.8556C68.6211 51.8556 70.4024 50.59 70.4024 48.6525V48.6368C70.4024 46.9493 69.2305 46.0431 66.3243 45.4337L63.9024 44.9337C59.4649 44.0118 57.2774 41.9493 57.2774 38.59V38.5743C57.293 34.6056 60.7774 31.9181 65.6368 31.9181C70.5586 31.9181 73.7774 34.5118 74.0118 38.3712L74.0274 38.6368H70.168L70.1368 38.4493C69.8711 36.4806 68.1368 35.3087 65.6055 35.3087C62.9649 35.3243 61.3243 36.5587 61.3243 38.3556V38.3712C61.3243 39.965 62.5586 40.9025 65.2774 41.465L67.7149 41.965C72.4024 42.9337 74.4493 44.84 74.4493 48.3556V48.3712C74.4493 52.5743 71.1368 55.2462 65.6368 55.2462Z" fill="white"/>
</svg>
