<svg width="419" height="312" viewBox="0 0 419 312" fill="none" xmlns="http://www.w3.org/2000/svg">
<path d="M267.688 205.338L195.07 212.127L115.146 219.346V159.028L195.07 151.807L267.688 145.018V205.338Z" fill="white"/>
<path d="M148.148 167.659L153.629 204.042L143.833 204.954L143.319 198.373L139.891 198.69L139.315 205.375L129.406 206.297L134.293 168.949L148.146 167.661L148.148 167.659ZM143.068 191.853C142.582 187.717 142.096 182.599 141.608 176.493C140.632 183.648 140.018 188.873 139.769 192.161L143.068 191.855V191.853Z" fill="#E30D16"/>
<path d="M169.969 165.627V195.137L175.796 194.595V201.978L160.386 203.413V166.522L169.969 165.629V165.627Z" fill="#E30D16"/>
<path d="M183.25 164.391L199.231 162.904V170.288L192.833 170.883V177.878L198.821 177.322V184.339L192.833 184.896V193.007L199.869 192.352V199.736L183.25 201.283V164.391Z" fill="#E30D16"/>
<path d="M207.754 162.11L214.537 161.479C219.061 161.057 222.123 160.949 223.725 161.148C225.325 161.349 226.633 162.118 227.64 163.459C228.648 164.801 229.154 167.044 229.154 170.189C229.154 173.061 228.797 175.022 228.084 176.075C227.371 177.131 225.968 177.854 223.874 178.246C225.769 178.541 227.046 179.052 227.701 179.781C228.351 180.511 228.757 181.198 228.917 181.845C229.076 182.49 229.156 184.301 229.156 187.277V197.008L220.255 197.836V185.577C220.255 183.602 220.101 182.394 219.788 181.952C219.478 181.51 218.661 181.349 217.34 181.473V198.108L207.756 199V162.108L207.754 162.11ZM217.338 167.53V175.734C218.416 175.633 219.171 175.416 219.603 175.079C220.035 174.741 220.251 173.76 220.251 172.137V170.109C220.251 168.939 220.043 168.192 219.625 167.866C219.207 167.54 218.446 167.43 217.338 167.532V167.53Z" fill="#E30D16"/>
<path d="M257.299 157.498V164.882L251.609 165.41V194.92L242.023 195.813V166.302L236.355 166.829V159.445L257.299 157.496V157.498Z" fill="#E30D16"/>
<path d="M99.8076 240.113C93.9347 240.113 88.4755 238.044 84.2335 234.167C79.4513 229.795 76.8181 223.67 76.8181 216.917V121.944C76.8181 108.252 87.9192 96.0744 101.565 94.8033L298.636 76.4197L299.249 83.027L102.178 101.411C91.8418 102.373 83.4342 111.585 83.4342 121.944V216.917C83.4342 221.78 85.3001 226.163 88.6904 229.262C92.1049 232.382 96.6743 233.85 101.565 233.393L298.636 215.012L299.249 221.619L102.178 240.001C101.382 240.075 100.591 240.111 99.8076 240.111V240.113Z" fill="url(#paint0_linear_309_20)"/>
<path d="M401.746 0L348.44 54.5305L418.6 3.92289L401.746 0Z" fill="url(#paint1_linear_309_20)"/>
<path d="M340.995 72.5754L393.122 51.3914L391.556 60.8067L340.995 72.5754Z" fill="url(#paint2_linear_309_20)"/>
<path d="M326.883 58.4514L339.427 25.4988L347.266 26.6765L326.883 58.4514Z" fill="url(#paint3_linear_309_20)"/>
<path d="M16.8524 311.482L70.1583 256.953L0 307.559L16.8524 311.482Z" fill="url(#paint4_linear_309_20)"/>
<path d="M77.6056 238.908L25.4763 260.09L27.0425 250.677L77.6056 238.908Z" fill="url(#paint5_linear_309_20)"/>
<path d="M91.7153 253.03L79.1719 285.983L71.333 284.805L91.7153 253.03Z" fill="url(#paint6_linear_309_20)"/>
<path d="M308.065 73.751C320.45 73.751 330.054 84.5811 328.582 96.8884L319.502 172.87C318.806 178.698 313.868 183.085 308.003 183.085C302.132 183.085 297.191 178.688 296.502 172.852L287.543 96.8562C286.093 84.559 295.693 73.751 308.063 73.751H308.065Z" fill="url(#paint7_linear_309_20)"/>
<path d="M296.359 220.003C293.175 216.818 291.582 212.911 291.582 208.285C291.582 203.659 293.175 199.754 296.359 196.566C299.544 193.381 303.445 191.787 308.067 191.787C312.689 191.787 316.591 193.381 319.775 196.566C322.96 199.754 324.55 203.663 324.55 208.285C324.55 212.907 322.96 216.818 319.775 220.003C316.591 223.191 312.685 224.784 308.067 224.784C303.449 224.784 299.544 223.191 296.359 220.003Z" fill="url(#paint8_linear_309_20)"/>
<path d="M152.539 119.588L142.953 120.203L142.764 117.259C142.676 115.884 142.497 115.018 142.228 114.656C141.959 114.296 141.537 114.134 140.965 114.17C140.345 114.21 139.891 114.493 139.604 115.022C139.317 115.55 139.208 116.33 139.275 117.361C139.359 118.687 139.602 119.674 140.003 120.321C140.389 120.97 141.413 121.718 143.075 122.562C147.844 124.996 150.882 127.05 152.187 128.724C153.492 130.398 154.27 133.181 154.519 137.074C154.699 139.904 154.502 142.012 153.926 143.394C153.35 144.779 152.143 145.985 150.306 147.014C148.469 148.043 146.29 148.64 143.774 148.8C141.011 148.977 138.622 148.606 136.602 147.685C134.582 146.765 133.217 145.513 132.51 143.931C131.801 142.349 131.351 140.072 131.161 137.094L130.994 134.494L140.58 133.879L140.889 138.712C140.985 140.201 141.18 141.15 141.477 141.558C141.774 141.966 142.266 142.148 142.953 142.104C143.64 142.06 144.132 141.757 144.433 141.196C144.732 140.635 144.85 139.823 144.782 138.758C144.632 136.419 144.216 134.91 143.531 134.23C142.831 133.553 141.144 132.454 138.471 130.932C135.797 129.397 134.018 128.27 133.134 127.554C132.251 126.839 131.494 125.82 130.859 124.497C130.225 123.175 129.839 121.459 129.705 119.349C129.51 116.306 129.755 114.057 130.442 112.6C131.128 111.143 132.311 109.963 133.994 109.059C135.674 108.155 137.742 107.624 140.194 107.465C142.875 107.293 145.186 107.58 147.129 108.326C149.073 109.071 150.392 110.084 151.091 111.36C151.788 112.638 152.238 114.855 152.44 118.012L152.541 119.582L152.539 119.588Z" fill="white"/>
<path d="M177.214 105.329L185.661 144.674L175.114 145.352L174.102 138.247L170.409 138.484L170.246 145.665L159.576 146.35L162.295 106.287L177.212 105.329H177.214ZM173.381 131.224C172.57 126.758 171.69 121.229 170.74 114.64C170.176 122.315 169.873 127.918 169.829 131.453L173.381 131.226V131.224Z" fill="white"/>
<path d="M189.008 104.397L206.487 103.275L206.997 111.225L199.839 111.686L200.321 119.218L206.694 118.808L207.178 126.364L200.805 126.774L201.875 143.459L191.554 144.122L189.008 104.397Z" fill="white"/>
<path d="M210.79 101.907L228 100.801L228.51 108.752L221.621 109.194L222.103 116.726L228.55 116.312L229.034 123.868L222.586 124.282L223.147 133.018L230.723 132.532L231.233 140.482L213.336 141.632L210.79 101.907Z" fill="white"/>
<defs>
<linearGradient id="paint0_linear_309_20" x1="208.35" y1="157.591" x2="308.723" y2="149.772" gradientUnits="userSpaceOnUse">
<stop offset="0.26" stop-color="white"/>
<stop offset="1" stop-color="#E30D16"/>
</linearGradient>
<linearGradient id="paint1_linear_309_20" x1="388.721" y1="23.7725" x2="326.933" y2="88.4478" gradientUnits="userSpaceOnUse">
<stop offset="0.26" stop-color="white"/>
<stop offset="1" stop-color="#E30D16"/>
</linearGradient>
<linearGradient id="paint2_linear_309_20" x1="398.393" y1="33.0129" x2="336.605" y2="97.6862" gradientUnits="userSpaceOnUse">
<stop offset="0.26" stop-color="white"/>
<stop offset="1" stop-color="#E30D16"/>
</linearGradient>
<linearGradient id="paint3_linear_309_20" x1="368.73" y1="4.67452" x2="306.942" y2="69.3478" gradientUnits="userSpaceOnUse">
<stop offset="0.26" stop-color="white"/>
<stop offset="1" stop-color="#E30D16"/>
</linearGradient>
<linearGradient id="paint4_linear_309_20" x1="32.1566" y1="289.767" x2="91.5792" y2="240.389" gradientUnits="userSpaceOnUse">
<stop offset="0.26" stop-color="white"/>
<stop offset="1" stop-color="#E30D16"/>
</linearGradient>
<linearGradient id="paint5_linear_309_20" x1="18.3121" y1="273.105" x2="77.7347" y2="223.726" gradientUnits="userSpaceOnUse">
<stop offset="0.26" stop-color="white"/>
<stop offset="1" stop-color="#E30D16"/>
</linearGradient>
<linearGradient id="paint6_linear_309_20" x1="43.9933" y1="304.01" x2="103.416" y2="254.633" gradientUnits="userSpaceOnUse">
<stop offset="0.26" stop-color="white"/>
<stop offset="1" stop-color="#E30D16"/>
</linearGradient>
<linearGradient id="paint7_linear_309_20" x1="266.516" y1="122.739" x2="418.206" y2="143.298" gradientUnits="userSpaceOnUse">
<stop offset="0.26" stop-color="white"/>
<stop offset="1" stop-color="#E30D16"/>
</linearGradient>
<linearGradient id="paint8_linear_309_20" x1="255.882" y1="201.201" x2="407.57" y2="221.76" gradientUnits="userSpaceOnUse">
<stop offset="0.26" stop-color="white"/>
<stop offset="1" stop-color="#E30D16"/>
</linearGradient>
</defs>
</svg>
